<?xml version="1.0" encoding="UTF-8" standalone="no"?>
<!-- Created with Inkscape (http://www.inkscape.org/) -->

<svg
   xmlns:dc="http://purl.org/dc/elements/1.1/"
   xmlns:cc="http://creativecommons.org/ns#"
   xmlns:rdf="http://www.w3.org/1999/02/22-rdf-syntax-ns#"
   xmlns:svg="http://www.w3.org/2000/svg"
   xmlns="http://www.w3.org/2000/svg"
   xmlns:sodipodi="http://sodipodi.sourceforge.net/DTD/sodipodi-0.dtd"
   xmlns:inkscape="http://www.inkscape.org/namespaces/inkscape"
   version="1.1"
   id="svg1169"
   width="95.25"
   height="71.753426">
  <metadata
     id="metadata1175">
    <rdf:RDF>
      <cc:Work
         rdf:about="">
        <dc:format>image/svg+xml</dc:format>
        <dc:type
           rdf:resource="http://purl.org/dc/dcmitype/StillImage" />
      </cc:Work>
    </rdf:RDF>
  </metadata>
  <defs
     id="defs1173" />
  <sodipodi:namedview
     pagecolor="#ffffff"
     bordercolor="#666666"
     borderopacity="1"
     objecttolerance="10"
     gridtolerance="10"
     guidetolerance="10"
     inkscape:pageopacity="0"
     inkscape:pageshadow="2"
     inkscape:window-width="640"
     inkscape:window-height="480"
     id="namedview1171" />
  <inkscape:clipboard
     style="font-variant-east_asian:normal;opacity:1;vector-effect:none;fill:none;fill-opacity:1;stroke-width:1.13385831;stroke-linecap:butt;stroke-linejoin:miter;stroke-miterlimit:4;stroke-dasharray:none;stroke-dashoffset:0;stroke-opacity:1;stroke:#000000"
     min="117.80604,125.80271"
     max="213.05605,197.55613" />
  <g
     id="g1167"
     transform="matrix(3.7795276,0,0,3.7795276,-117.80605,-924.96356)">
    <path
       style="fill:#000000;stroke-width:0.30000001;stroke-miterlimit:4;stroke-dasharray:none"
       d="m 31.169516,263.54209 c 0,-0.1396 0.442975,-0.74431 0.79483,-1.08503 0.01879,-0.0182 0.271791,-0.3134 0.562239,-0.65602 0.290448,-0.34263 0.662032,-0.77549 0.825743,-0.96191 0.163711,-0.18644 0.401836,-0.46006 0.529166,-0.60805 0.127332,-0.14798 0.454753,-0.52616 0.727605,-0.84037 l 0.496094,-0.57129 8.863541,0.002 8.863542,0.002 0.760678,0.96629 c 0.418372,0.53146 0.79077,0.99949 0.82755,1.04005 0.03678,0.0405 0.490705,0.60404 1.008722,1.25218 0.800128,1.0011 0.941853,1.21261 0.941853,1.40559 v 0.22717 H 43.770297 31.169516 Z m 25.06927,-0.0676 c 0,-0.0589 -0.08185,-0.20398 -0.1819,-0.32248 -0.100048,-0.11851 -0.330695,-0.40521 -0.512558,-0.63712 -0.18186,-0.23191 -0.598577,-0.75397 -0.92604,-1.16012 -0.327462,-0.40616 -0.744042,-0.92707 -0.925732,-1.15756 -0.181693,-0.23049 -0.360285,-0.45191 -0.396875,-0.49203 -0.03659,-0.0401 -0.185593,-0.22497 -0.331113,-0.41076 l -0.264585,-0.3378 -8.741919,-0.003 -8.74192,-0.002 -0.551569,0.63923 c -0.303365,0.35158 -0.639168,0.74598 -0.746233,0.87643 -0.107065,0.13046 -0.315425,0.37177 -0.463021,0.53625 -0.147597,0.16447 -0.417186,0.47565 -0.599087,0.69151 -0.181901,0.21586 -0.45019,0.52778 -0.596198,0.69315 -0.51697,0.58552 -0.958229,1.11754 -0.958229,1.15534 0,0.0211 5.61082,0.0383 12.46849,0.0383 11.443099,0 12.468489,-0.009 12.468489,-0.10702 z m -23.702069,-0.46606 c -0.105599,-0.10559 -0.01243,-0.2663 0.504276,-0.86979 0.30171,-0.3524 0.988322,-1.15418 1.525807,-1.78174 l 0.977247,-1.14101 h 8.415751 8.415753 l 0.89331,1.07487 c 1.691843,2.0357 1.987882,2.42444 1.965615,2.58112 l -0.02095,0.14739 -11.316261,0.0167 c -6.223946,0.009 -11.336192,-0.003 -11.360549,-0.0275 z m 22.434274,-0.21676 c -0.01212,-0.0343 -0.627673,-0.82314 -1.367878,-1.75312 l -1.345832,-1.69088 -8.311461,0.0168 -8.311461,0.0168 -1.276932,1.48828 c -0.702311,0.81856 -1.367097,1.59991 -1.477302,1.73633 l -0.200372,0.24805 h 11.156643 c 6.942676,0 11.148315,-0.0235 11.134595,-0.0622 z m -15.025587,-4.41309 c -0.02455,-0.0246 -0.04464,-0.30757 -0.04464,-0.62893 v -0.58428 h -1.584388 c -1.554461,0 -1.821022,-0.0305 -2.021332,-0.23074 -0.225114,-0.22511 -0.230738,-0.37102 -0.230738,-5.98578 0,-3.55344 0.02387,-5.61163 0.0664,-5.72348 0.0765,-0.20121 0.175104,-0.31072 0.377099,-0.41883 0.103063,-0.0551 1.088396,-0.0766 3.5209,-0.0766 h 3.377786 0.529166 3.392473 3.392473 l 0.229011,0.19116 0.229013,0.19118 0.01762,5.73008 c 0.01938,6.30006 0.03721,6.00729 -0.379253,6.22265 -0.157295,0.0813 -0.488495,0.10034 -1.749262,0.10034 h -1.55523 l -0.01902,0.61185 -0.01902,0.61184 -3.742211,0.0171 c -2.058216,0.009 -3.762298,-0.003 -3.786849,-0.0276 z m 7.443894,-0.76673 0.01902,-0.61185 1.660179,-0.0331 c 1.772056,-0.0353 1.797073,-0.0403 1.938798,-0.38252 0.05359,-0.12945 0.06946,-1.74067 0.05673,-5.75977 l -0.01767,-5.58005 -0.229014,-0.19117 -0.229011,-0.19118 -6.914739,2.5e-4 c -6.757324,2.4e-4 -6.919591,0.003 -7.127937,0.13024 -0.117259,0.0715 -0.229796,0.19789 -0.25008,0.28087 -0.02028,0.083 -0.02852,2.68735 -0.01831,5.78747 0.01748,5.30629 0.02548,5.64351 0.136553,5.75469 0.105435,0.10553 0.302472,0.12161 1.852086,0.15117 L 40,257 l 0.01902,0.61185 0.01902,0.61185 h 3.666123 3.66613 l 0.01901,-0.61185 z m -10.050381,-1.13986 c -0.117519,-0.0511 -0.273678,-0.19132 -0.34702,-0.3116 -0.128805,-0.21127 -0.133348,-0.32682 -0.133406,-3.39372 -6.6e-5,-3.48844 0.05452,-6.63512 0.142074,-6.58101 0.03113,0.0193 0.05641,2.95218 0.05497,5.33753 -0.0029,4.7065 -0.01796,4.50452 0.355601,4.74929 0.136244,0.0893 0.885963,0.0991 6.38759,0.0836 l 6.233229,-0.0175 0.192999,-0.21602 0.192999,-0.21601 0.0076,-4.57956 c 0.0044,-2.67459 0.02715,-5.29996 0.06194,-5.14471 0.03252,0.14512 0.07622,3.02909 0.09933,5.3938 0.04065,4.16016 0.03789,4.30682 -0.08508,4.52588 -0.0699,0.12452 -0.228509,0.28079 -0.352461,0.34726 -0.213766,0.11465 -0.543801,0.12074 -6.411035,0.11828 -5.161293,-0.002 -6.221052,-0.0179 -6.399339,-0.0955 z"
       id="path4759-3"
       inkscape:connector-curvature="0"
       sodipodi:nodetypes="scssccccccssscccssccccccccccccscssssccsccccccsccccccsccscccscscsccsccccccsssccccccccscccccsccscscccccccccscscccccsssccccc" />
    <path
       style="fill:none;stroke:#000000;stroke-width:0.30000001;stroke-linecap:butt;stroke-linejoin:miter;stroke-miterlimit:4;stroke-dasharray:none;stroke-opacity:1"
       d="M 36.979895,246.18258 H 50.487334"
       id="path4763-56"
       inkscape:connector-curvature="0" />
  </g>
</svg>