<?xml version="1.0" encoding="UTF-8" standalone="no"?>
<!-- Created with Inkscape (http://www.inkscape.org/) -->

<svg
   xmlns:dc="http://purl.org/dc/elements/1.1/"
   xmlns:cc="http://creativecommons.org/ns#"
   xmlns:rdf="http://www.w3.org/1999/02/22-rdf-syntax-ns#"
   xmlns:svg="http://www.w3.org/2000/svg"
   xmlns="http://www.w3.org/2000/svg"
   xmlns:sodipodi="http://sodipodi.sourceforge.net/DTD/sodipodi-0.dtd"
   xmlns:inkscape="http://www.inkscape.org/namespaces/inkscape"
   version="1.1"
   id="svg889"
   width="218.61389"
   height="120.58019">
  <metadata
     id="metadata895">
    <rdf:RDF>
      <cc:Work
         rdf:about="">
        <dc:format>image/svg+xml</dc:format>
        <dc:type
           rdf:resource="http://purl.org/dc/dcmitype/StillImage" />
      </cc:Work>
    </rdf:RDF>
  </metadata>
  <defs
     id="defs893" />
  <sodipodi:namedview
     pagecolor="#ffffff"
     bordercolor="#666666"
     borderopacity="1"
     objecttolerance="10"
     gridtolerance="10"
     guidetolerance="10"
     inkscape:pageopacity="0"
     inkscape:pageshadow="2"
     inkscape:window-width="640"
     inkscape:window-height="480"
     id="namedview891" />
  <inkscape:clipboard
     style="font-variant-east_asian:normal;opacity:1;vector-effect:none;fill:#220000;fill-opacity:0.65727701;stroke-width:3.77952733;stroke-linecap:butt;stroke-linejoin:miter;stroke-miterlimit:4;stroke-dasharray:none;stroke-dashoffset:0;stroke-opacity:1"
     min="-161.84389,1140.1564"
     max="56.769997,1260.7366" />
  <path
     inkscape:connector-curvature="0"
     id="path833"
     d="M 54.865792,120.43856 C 34.145927,119.3111 12.950268,110.38359 0,93.867434 9.6605179,64.588662 26.887729,36.818523 52.026705,18.410968 84.190104,-5.4748561 131.2849,-6.1948372 164.16142,16.693377 c 26.36845,18.116576 44.29039,46.514707 54.45247,76.449669 -1.68419,9.346434 -14.77258,8.952164 -22.24809,10.796104 -21.14672,2.51446 -42.60646,2.13355 -63.80698,0.47027 -6.54002,-1.79352 -12.39279,3.02657 -18.59758,4.54833 -19.031639,6.3915 -38.754144,12.64915 -59.095448,11.48081 z m 12.375001,-0.60129 c 21.244774,-1.84318 41.277407,-9.72941 61.249087,-16.48334 19.6465,2.35771 39.58689,2.22207 59.31341,1.02259 9.89151,-1.31504 21.06429,-1.37326 29.26176,-7.747514 2.95508,-5.724529 -3.12009,-12.151328 -4.52074,-17.898342 C 198.60294,47.315352 175.09082,17.665714 141.7438,5.9347213 109.90263,-5.5109468 72.432454,1.2204032 46.663193,23.187464 24.782918,41.553624 9.3135119,66.992589 0.51679371,93.948286 16.445567,113.32677 42.727987,121.83631 67.240793,119.83727 Z m -10.312501,-0.0292 C 35.962118,119.15826 14.671684,110.47112 1.0361764,94.207335 2.3038866,86.804782 6.2112303,79.734276 9.2547592,72.779121 23.636436,43.108431 47.165507,15.622633 79.428292,5.320155 109.95901,-4.6124057 145.16304,1.6429203 170.13244,21.930801 c 22.28951,17.924485 37.97402,43.165505 47.27392,69.988581 -4.32365,-1.565582 -12.30173,-4.944223 -18.59173,-4.858133 -12.11963,-1.421646 -24.56304,-0.973292 -36.07697,3.385399 -31.43734,10.153512 -61.60668,25.512022 -94.855598,29.070572 -3.645041,0.24313 -7.300305,0.55998 -10.95377,0.29085 z m 6.9375,-0.5468 c 29.661744,-1.93712 57.063558,-14.59285 84.693748,-24.422542 13.80806,-5.138109 28.19811,-10.481892 43.20322,-8.804481 8.50751,0.578593 17.6753,0.913251 25.06998,5.649906 C 205.43618,59.889371 185.37226,29.322914 155.16553,12.734885 122.03558,-5.6625399 78.186721,-1.6609197 48.865788,22.369589 26.251571,40.516205 10.640969,66.29708 1.3692737,93.509127 15.952914,111.84497 40.924559,120.37261 63.865792,119.26125 Z M 151.92829,104.8086 c -6.89408,-0.70744 -17.01064,0.27197 -22.0625,-2.17551 16.06867,-5.79373 31.84532,-13.039614 48.81605,-15.795419 12.28827,-0.237921 25.49225,-0.787086 36.75798,4.844901 6.90828,5.712469 -6.74958,9.373858 -11.44902,10.200438 -17.10029,3.49545 -34.69786,3.13074 -52.06251,2.92559 z m 20.37501,-0.36529 c 14.07413,-0.78396 28.94617,-0.57617 41.98877,-6.586573 8.47736,-7.378984 -10.43218,-9.48305 -15.84887,-10.111011 -12.27844,-1.481896 -24.82622,-0.755796 -36.45073,3.718065 -10.65684,3.427457 -21.04782,7.608506 -31.55873,11.457729 13.8821,1.48027 27.91916,1.73275 41.86956,1.52179 z"
     style="fill:#220000;fill-opacity:0.65727701;stroke-width:3.77952743" />
</svg>