<?xml version="1.0" encoding="UTF-8" standalone="no"?>
<!-- Created with Inkscape (http://www.inkscape.org/) -->

<svg
   xmlns:dc="http://purl.org/dc/elements/1.1/"
   xmlns:cc="http://creativecommons.org/ns#"
   xmlns:rdf="http://www.w3.org/1999/02/22-rdf-syntax-ns#"
   xmlns:svg="http://www.w3.org/2000/svg"
   xmlns="http://www.w3.org/2000/svg"
   xmlns:sodipodi="http://sodipodi.sourceforge.net/DTD/sodipodi-0.dtd"
   xmlns:inkscape="http://www.inkscape.org/namespaces/inkscape"
   version="1.1"
   id="svg1994"
   width="338.08603"
   height="58.035767">
  <metadata
     id="metadata2000">
    <rdf:RDF>
      <cc:Work
         rdf:about="">
        <dc:format>image/svg+xml</dc:format>
        <dc:type
           rdf:resource="http://purl.org/dc/dcmitype/StillImage" />
      </cc:Work>
    </rdf:RDF>
  </metadata>
  <defs
     id="defs1998" />
  <sodipodi:namedview
     pagecolor="#ffffff"
     bordercolor="#666666"
     borderopacity="1"
     objecttolerance="10"
     gridtolerance="10"
     guidetolerance="10"
     inkscape:pageopacity="0"
     inkscape:pageshadow="2"
     inkscape:window-width="640"
     inkscape:window-height="480"
     id="namedview1996" />
  <inkscape:clipboard
     style="font-variant-east_asian:normal;opacity:1;vector-effect:none;fill:none;fill-opacity:1;stroke:#000000;stroke-width:4.99999714;stroke-linecap:butt;stroke-linejoin:miter;stroke-miterlimit:4;stroke-dasharray:none;stroke-dashoffset:0;stroke-opacity:1"
     min="335.16772,116.19329"
     max="673.25375,174.22906" />
  <path
     inkscape:connector-curvature="0"
     id="path5102"
     style="fill:none;fill-opacity:1;fill-rule:nonzero;stroke:#000000;stroke-width:4.99999714;stroke-miterlimit:4;stroke-opacity:1"
     d="m 338.03985,30.009339 -58.02812,-1.07204 c -0.23701,-14.55728 4.92803,-26.4373004 12.25655,-26.4373004 11.48305,0 15.26326,11.8800204 15.26326,26.5178904 0,17.94415 -14.85897,26.51788 -23.57232,26.51788 -8.71337,0 -24.95716,-7.50357 -24.95718,-26.51788 -2e-5,-14.63787 5.16502,-26.5178904 12.49354,-26.5178904 11.48305,0 15.26326,11.8800204 15.26326,26.5178904 0,17.94415 -14.85897,26.51788 -23.57232,26.51788 -8.71337,0 -24.95716,-7.50357 -24.95718,-26.51788 -2e-5,-14.63787 5.16502,-26.5178904 12.49354,-26.5178904 11.48305,0 15.26326,11.8800204 15.26326,26.5178904 0,17.94415 -14.85897,26.51788 -23.57232,26.51788 -8.71337,0 -24.95716,-7.50357 -24.95716,-26.51788 0,-14.63787 5.16504,-26.5178904 12.49356,-26.5178904 11.48305,0 15.26326,11.8800204 15.26326,26.5178904 0,17.94415 -14.85897,26.51788 -23.57232,26.51788 -8.71337,0 -24.95716,-7.50357 -24.95712,-26.51788 5e-5,-14.63787 5.16509,-26.5178904 12.49361,-26.5178904 11.48305,0 15.26326,11.8800204 15.26326,26.5178904 0,17.94415 -14.85897,26.51788 -23.57232,26.51788 -8.71337,0 -24.95716,-7.50357 -24.95716,-26.51788 0,-14.63787 5.16504,-26.5178904 12.49356,-26.5178904 11.48305,0 15.26326,11.8800204 15.26326,26.5178904 0,17.94415 -14.85897,26.51788 -23.57232,26.51788 -8.71337,0 -24.95716,-7.50357 -24.95716,-26.51788 0,-14.63787 5.16504,-26.5178904 12.49356,-26.5178904 11.48305,0 15.26326,11.8800204 15.26326,26.5178904 0,17.94415 -14.85897,26.51788 -23.57232,26.51788 -8.71337,0 -24.95716,-7.50357 -24.95716,-26.51788 0,-14.63787 5.16504,-26.5178904 12.49356,-26.5178904 11.48305,0 15.26326,11.8800204 15.26326,26.5178904 0,17.94415 -14.85897,26.51788 -23.57232,26.51788 -8.71337,0 -24.95716,-7.50357 -24.95716,-26.51788 10e-6,-14.63787 5.16505,-26.5178904 12.49357,-26.5178904 11.48305,0 15.26326,11.8800204 15.26326,26.5178904 0,17.94415 -14.85897,26.51788 -23.57232,26.51788 -8.71337,0 -24.95716,-7.50357 -24.95716,-26.51788 0,-14.63787 5.16504,-26.5178904 12.49356,-26.5178904 11.48305,0 15.26326,11.8800204 15.26326,26.5178904 0,17.94415 -14.85897,26.51788 -23.57232,26.51788 -8.71337,0 -24.95716,-7.50357 -24.95716,-26.51788 0,-14.63787 5.16504,-26.5178904 12.49356,-26.5178904 11.48305,0 15.26326,11.8800204 15.26326,26.5178904 0,17.94415 -14.85897,26.51788 -23.57232,26.51788 -8.71337,0 -24.95716,-7.50357 -24.95716,-26.51788 0,-14.63787 5.16504,-26.5178904 12.49356,-26.5178904 11.48305,0 15.26326,11.8800204 15.26326,26.5178904 0,17.94415 -14.85897,26.51788 -23.57232,26.51788 -8.71337,0 -24.95716,-7.73288 -24.62406,-26.9765 H 0"
     sodipodi:nodetypes="ccccccccccccccccccccccccccccccccccccccccccccccccccc" />
</svg>